<?xml version="1.0" encoding="utf-8"?>
<?xml-stylesheet type="text/xsl" href="rss1.xsl"?>
<rss version="2.0" xmlns:atom="http://www.w3.org/2005/Atom" xmlns:content="http://purl.org/rss/1.0/modules/content/" xmlns:dc="http://purl.org/dc/elements/1.1/" xmlns:media="http://search.yahoo.com/mrss/">
<channel>
 <title>Getty</title>
 <link>http://www.gettyimg.com/</link>
 <atom:link href="http://www.gettyimg.com/" rel="self" type="application/rss+xml" />

 
                <item>
                <title><![CDATA[【DVD】DVD5 - Olga Tañón - Éxitos en Video (DVD - NTSC - 2002)]]></title>
                <link><![CDATA[https://sharemania.us/threads/olga-ta%C3%B1%C3%B3n-%C3%89xitos-en-video-dvd-ntsc-2002.223995/]]></link>
                <description><![CDATA[<article>
<blockquote class="messageText SelectQuoteContainer ugc baseHtml">
<img src="https://i.imgur.com/oyprlQO.jpg" class="bbCodeImage LbImage" alt="[​IMG]" data-url="https://i.imgur.com/oyprlQO.jpg" style=""><br>
<br>
<b>Tracklist:<br>
</b><br>
1 Entre La Noche Y El Día<br>
2 Presencié Tu Amor<br>
3 Vendrás Llorando<br>
4 Basta Ya<br>
5 Me Subes, Me Bajas, Me Subes<br>
6 Llegó El Amor<br>
7 Tu Amor<br>
8 Engáñame<br>
9 Hielo Y Fuego<br>
10 Ya Me Cansé<br>
11 Cómo Olvidar (Merengue)<br>
12 Miénteme<br>
13 Cómo Olvidar (Balad)<br>
<br>
LINK &gt; <a href="https://drive.google.com/drive/folders/1GtjxpTNKcq5wndr10feI636X1It2wk-z" target="_blank" class="externalLink" rel="nofollow">https://drive.google.com/drive/folders/1GtjxpTNKcq5wndr10feI636X1It2wk-z</a>
<div class="messageTextEndMarker">&nbsp;</div>
</blockquote>
</article>]]></description>
                <author><![CDATA[Wrland]]></author>
                </item>

                
                <item>
                <title><![CDATA[【Cinema Center】MOVIE - Guardians of the Galaxy Vol. 3 (2023) 1080p WEB-DL h264 DDP5.1 Atmos]]></title>
                <link><![CDATA[https://sharemania.us/threads/guardians-of-the-galaxy-vol-3-2023-1080p-web-dl-h264-ddp5-1-atmos.223994/]]></link>
                <description><![CDATA[<article>
<blockquote class="messageText SelectQuoteContainer ugc baseHtml">
<img src="https://images2.imgbox.com/74/c2/ZFKLPfcf_o.jpg" class="bbCodeImage LbImage" alt="[​IMG]" data-url="https://images2.imgbox.com/74/c2/ZFKLPfcf_o.jpg" style=""><br>
<div class="ToggleTriggerAnchor bbCodeSpoilerContainer">
<button type="button" class="button bbCodeSpoilerButton ToggleTrigger Tooltip JsOnly" data-target="> .SpoilerTarget"><span>Spoiler</span></button>
<div class="SpoilerTarget bbCodeSpoilerText">
<div class="bbCodeBlock bbCodeCode">
<div class="type">Code:</div>
<pre>General
Unique ID : 269794961376778676471457344797701908910 (0xCAF89E974AC43A76BF2A9482C06129AE)
Complete name : Guardians.of.the.Galaxy.Vol.3.2023.1080p.WEB-DL.DDP5.1.Atmos.H.264-CMRG.mkv
Format : Matroska
Format version : Version 4
File size : 11.1 GiB
Duration : 2 h 30 min
Overall bit rate : 10.6 Mb/s
Writing application : mkvmerge v75.0.0 (&amp;#039;Goliath&amp;#039 64-bit
Writing library : libebml v1.4.4 + libmatroska v1.7.1

Video
ID : 1
Format : AVC
Format/Info : Advanced Video Codec
Format profile : High@L4
Format settings : CABAC / 4 Ref Frames
Format settings, CABAC : Yes
Format settings, Reference frames : 4 frames
Codec ID : V_MPEG4/ISO/AVC
Duration : 2 h 30 min
Bit rate : 9 814 kb/s
Width : 1 920 pixels
Height : 1 012 pixels
Display aspect ratio : 1.897
Frame rate mode : Constant
Frame rate : 23.976 (24000/1001) FPS
Color space : YUV
Chroma subsampling : 4:2:0
Bit depth : 8 bits
Scan type : Progressive
Bits/(Pixel*Frame) : 0.211
Stream size : 10.3 GiB (93%)
Language : English
Default : Yes
Forced : No
Color range : Limited
Color primaries : BT.709
Transfer characteristics : BT.709
Matrix coefficients : BT.709

Audio
ID : 2
Format : E-AC-3 JOC
Format/Info : Enhanced AC-3 with Joint Object Coding
Commercial name : Dolby Digital Plus with Dolby Atmos
Codec ID : A_EAC3
Duration : 2 h 30 min
Bit rate mode : Constant
Bit rate : 768 kb/s
Channel(s) : 6 channels
Channel layout : L R C LFE Ls Rs
Sampling rate : 48.0 kHz
Frame rate : 31.250 FPS (1536 SPF)
Compression mode : Lossy
Stream size : 824 MiB (7%)
Language : English
Service kind : Complete Main
Default : Yes
Forced : No
Complexity index : 16
Number of dynamic objects : 15
Bed channel count : 1 channel
Bed channel configuration : LFE

Text #1
ID : 3
Format : UTF-8
Codec ID : S_TEXT/UTF8
Codec ID/Info : UTF-8 Plain Text
Duration : 2 h 27 min
Bit rate : 41 b/s
Frame rate : 0.183 FPS
Count of elements : 1617
Stream size : 44.5 KiB (0%)
Language : English
Default : No
Forced : No

Text #2
ID : 4
Format : UTF-8
Codec ID : S_TEXT/UTF8
Codec ID/Info : UTF-8 Plain Text
Duration : 2 h 29 min
Bit rate : 70 b/s
Frame rate : 0.310 FPS
Count of elements : 2790
Stream size : 77.7 KiB (0%)
Title : SDH
Language : English
Default : No
Forced : No

Text #3
ID : 5
Format : UTF-8
Codec ID : S_TEXT/UTF8
Codec ID/Info : UTF-8 Plain Text
Duration : 2 h 27 min
Bit rate : 39 b/s
Frame rate : 0.183 FPS
Count of elements : 1626
Stream size : 42.6 KiB (0%)
Title : Latin American
Language : Spanish
Default : No
Forced : No

Text #4
ID : 6
Format : UTF-8
Codec ID : S_TEXT/UTF8
Codec ID/Info : UTF-8 Plain Text
Duration : 2 h 27 min
Bit rate : 44 b/s
Frame rate : 0.184 FPS
Count of elements : 1628
Stream size : 47.8 KiB (0%)
Title : Canadian
Language : French
Default : No
Forced : No</pre>
</div></div>
</div>
<div class="bbCodeBlock bbCodeVfcHH HiddenContent">
<div class="attribution type">Hidden Content:</div>
<blockquote>You must reply before you can see the hidden data contained here.</blockquote>
</div><img src="https://images2.imgbox.com/ff/c7/znX4CfZ0_o.png" class="bbCodeImage LbImage" alt="[​IMG]" data-url="https://images2.imgbox.com/ff/c7/znX4CfZ0_o.png" style=""> <br>
<img src="https://images2.imgbox.com/9b/81/s5ntto9C_o.png" class="bbCodeImage LbImage" alt="[​IMG]" data-url="https://images2.imgbox.com/9b/81/s5ntto9C_o.png" style=""> <br>
<img src="https://images2.imgbox.com/de/3e/1L2NCnfn_o.png" class="bbCodeImage LbImage" alt="[​IMG]" data-url="https://images2.imgbox.com/de/3e/1L2NCnfn_o.png" style="">
<div class="messageTextEndMarker">&nbsp;</div>
</blockquote>
</article>]]></description>
                <author><![CDATA[Cauã]]></author>
                </item>

                </channel></rss>